#!OML:ASF I:\Actors\actors\Patient Classification 1\Patient 1\Session 1\Subject1.ASF
:FULLY-SPECIFIED
:DEGREES
1376
root 0.465929 17.5134 7.96694 6.50813 -2.3483 -6.81466
lowerback 4.29499 1.40527 6.53871
upperback -8.22772 2.53532 -0.129963
thorax -10.9815 0.667838 -4.14179
lowerneck -14.3072 -3.97052 -2.68725
upperneck 40.4099 -9.33783 9.12527
head 18.1939 -2.98309 2.9454
rclavicle 1.58034e-014 1.51076e-014
rhumerus -29.0763 32.4132 -60.9335
rradius 53.1927
rwrist 36.5335
rhand 58.0542 -77.2236
rfingers 7.12502
rthumb 74.066 -411.487
lclavicle 1.58034e-014 1.51076e-014
lhumerus -29.2208 -30.1042 56.8824
lradius 60.6465
lwrist -33.6627
lhand 67.9507 26.7484
lfingers 7.12502
lthumb 74.3306 -34.6044
rfemur 0.139587 25.0162 24.6122
rtibia 1.65097
rfoot -11.5531 -24.7827
rtoes 2.52872
lfemur 9.01887 -41.1935 -15.5964
ltibia -4.67283
lfoot -17.0907 47.7161
ltoes 5.18887
1377
root 0.465759 17.5131 7.96851 6.50466 -2.35453 -6.80114
lowerback 4.2771 1.39164 6.49631
upperback -8.20531 2.5122 -0.10907
thorax -10.9495 0.663136 -4.09127
lowerneck -14.3033 -3.94947 -2.70248
upperneck 40.3698 -9.31509 9.1737
head 18.1719 -2.97092 2.97375
rclavicle 3.8763e-015 1.43125e-014
rhumerus -29.0185 31.9339 -60.7737
rradius 52.8693
rwrist 40.9548
rhand 55.3495 -75.0268
rfingers 7.12502
rthumb 72.986 -417.689
lclavicle 3.8763e-015 1.43125e-014
lhumerus -29.3107 -29.7757 56.7733
lradius 60.3635
lwrist -38.4926
lhand 62.5592 25.5841
lfingers 7.12502
lthumb 74.9548 -16.1559
rfemur 0.153353 25.0616 24.6028
rtibia 1.65061
rfoot -11.6337 -24.8077
rtoes 2.7397
lfemur 9.07863 -41.2498 -15.6555
ltibia -4.70456
lfoot -17.0953 47.7766
ltoes 5.18655
1378
root 0.465669 17.5125 7.9698 6.49779 -2.37861 -6.76538
lowerback 4.29 1.39078 6.4459
upperback -8.20316 2.50688 -0.109813
thorax -10.9565 0.664513 -4.06367
lowerneck -14.2403 -3.939 -2.65621
upperneck 40.2673 -9.29887 9.172
head 18.0885 -2.96172 2.96261
rclavicle -9.64106e-015 2.70347e-014
rhumerus -28.9405 31.2488 -60.5958
rradius 52.4119
rwrist 44.9301
rhand 52.392 -73.0458
rfingers 7.12502
rthumb 71.4328 -423.567
lclavicle -9.64106e-015 2.70347e-014
lhumerus -29.422 -29.4418 56.6552
lradius 60.1813
lwrist -42.3743
lhand 56.7747 25.2016
lfingers 7.12502
lthumb 73.6005 3.57742
rfemur 0.15679 25.0736 24.5653
rtibia 1.6679
rfoot -11.6296 -24.7974
rtoes 2.65226
lfemur 9.10659 -41.2225 -15.7145
ltibia -4.71138
lfoot -17.1694 47.7425
ltoes 5.34579
1379
root 0.466265 17.5121 7.97113 6.49572 -2.4102 -6.75427
lowerback 4.3129 1.40021 6.44589
upperback -8.21896 2.52108 -0.120829
thorax -10.9864 0.669212 -4.07868
lowerneck -14.133 -3.95037 -2.55021
upperneck 40.1361 -9.2965 9.08595
head 17.966 -2.96232 2.89653
rclavicle -1.00386e-014 -5.56597e-015
rhumerus -28.8925 30.5237 -60.4316
rradius 51.8615
rwrist 48.4646
rhand 49.27 -71.4478
rfingers 7.12502
rthumb 69.4667 -428.813
lclavicle -1.00386e-014 -5.56597e-015
lhumerus -29.5216 -29.1014 56.5293
lradius 60.0292
lwrist -45.3897
lhand 50.4352 25.2332
lfingers 7.12502
lthumb 70.2339 20.2071
rfemur 0.18324 25.0802 24.5581
rtibia 1.63285
rfoot -11.5355 -24.8026
rtoes 2.42482
lfemur 9.1537 -41.2722 -15.7746
ltibia -4.71715
lfoot -17.2806 47.8133
ltoes 5.47103
1380
root 0.467337 17.5114 7.97358 6.50199 -2.44749 -6.73891
lowerback 4.30759 1.42121 6.45042
upperback -8.23422 2.54814 -0.142167
thorax -10.9963 0.680086 -4.10789
lowerneck -14.0201 -3.97568 -2.41054
upperneck 39.9911 -9.30566 8.95457
head 17.8297 -2.96913 2.80048
rclavicle -1.69961e-014 2.14687e-014
rhumerus -28.8767 29.7444 -60.2371
rradius 51.318
rwrist 51.7273
rhand 46.2486 -70.316
rfingers 7.12502
rthumb 67.3253 -433.073
lclavicle -1.69961e-014 2.14687e-014
lhumerus -29.5968 -28.7927 56.3905
lradius 59.8405
lwrist -47.8491
lhand 42.7683 24.9669
lfingers 7.12502
lthumb 64.6464 32.7217
rfemur 0.217345 25.1505 24.5488
rtibia 1.58575
rfoot -11.5129 -24.8478
rtoes 2.43193
lfemur 9.2432 -41.4352 -15.8881
ltibia -4.74152
lfoot -17.202 48.043
ltoes 5.10628
1381
root 0.46873 17.5106 7.9752 6.50881 -2.45874 -6.66488
lowerback 4.30151 1.42737 6.37885
upperback -8.24311 2.54749 -0.161283
thorax -11.0035 0.684376 -4.08843
lowerneck -13.9211 -3.9925 -2.32841
upperneck 39.8345 -9.30438 8.87858
head 17.6992 -2.97327 2.74312
rclavicle -1.2424e-014 7.95139e-015
rhumerus -28.8206 28.9341 -59.9564
rradius 50.8433
rwrist 54.5027
rhand 43.3241 -69.5337
rfingers 7.12502
rthumb 65.0867 -436.566
lclavicle -1.2424e-014 7.95139e-015
lhumerus -29.7264 -28.4516 56.264
lradius 59.6815
lwrist -49.9551
lhand 33.6687 24.2605
lfingers 7.12502
lthumb 56.9715 40.8702
rfemur 0.224217 25.1426 24.4556
rtibia 1.56967
rfoot -11.5303 -24.8389
rtoes 2.48105
lfemur 9.28774 -41.5775 -16.0377
ltibia -4.75515
lfoot -16.9281 48.2436
ltoes 4.49481
1382
root 0.470568 17.51 7.97539 6.49985 -2.435 -6.56486
lowerback 4.32191 1.40788 6.26154
upperback -8.24402 2.51119 -0.16084
thorax -11.0238 0.675926 -4.01857
lowerneck -13.8956 -4.00287 -2.29793
upperneck 39.7533 -9.2872 8.80161
head 17.634 -2.97492 2.70086
rclavicle -1.16289e-014 -1.03368e-014
rhumerus -28.765 28.2691 -59.66
rradius 50.4517
rwrist 56.3833
rhand 39.8633 -68.9857
rfingers 7.12502
rthumb 62.2818 -440.124
lclavicle -1.16289e-014 -1.03368e-014
lhumerus -29.8925 -27.9081 56.1371
lradius 59.5201
lwrist -51.9408
lhand 23.4798 22.9611
lfingers 7.12502
lthumb 47.7619 45.2842
rfemur 0.262143 25.0855 24.3316
rtibia 1.50536
rfoot -11.4861 -24.8254
rtoes 2.44835
lfemur 9.26461 -41.5882 -16.1603
ltibia -4.71829
lfoot -16.7732 48.2569
ltoes 4.37503
1383
root 0.471648 17.5095 7.97591 6.48875 -2.42444 -6.51303
lowerback 4.33269 1.40495 6.19571
upperback -8.23199 2.50088 -0.162404
thorax -11.0191 0.676886 -3.98227
lowerneck -13.9492 -4.03643 -2.34802
upperneck 39.7331 -9.33017 8.81919
head 17.6455 -2.99666 2.70801
rclavicle 1.50082e-014 2.54444e-014
rhumerus -28.7962 27.3371 -59.3783
rradius 50.0607
rwrist 57.5149
rhand 35.1354 -68.2198
rfingers 7.12502
rthumb 58.2551 -443.71
lclavicle 1.50082e-014 2.54444e-014
lhumerus -29.935 -27.1856 55.95
lradius 59.2573
lwrist -54.1198
lhand 13.1831 21.6022
lfingers 7.12502
lthumb 38.1388 47.3636
rfemur 0.307182 25.0947 24.2793
rtibia 1.44818
rfoot -11.4416 -24.8552
rtoes 2.27879
lfemur 9.22623 -41.4676 -16.1869
ltibia -4.68431
lfoot -16.971 48.093
ltoes 4.88785
1384
root 0.471695 17.5097 7.9768 6.49358 -2.43716 -6.52771
lowerback 4.33182 1.42203 6.2068
upperback -8.21927 2.52399 -0.167811
thorax -11.0009 0.687869 -3.99694
lowerneck -14.1066 -4.15045 -2.65437
upperneck 39.8123 -9.52414 9.05169
head 17.7954 -3.08529 2.83695
rclavicle -1.59028e-015 3.18055e-015
rhumerus -28.8813 25.8516 -59.0832
rradius 49.5556
rwrist 58.4199
rhand 28.8966 -66.8437
rfingers 7.12502
rthumb 52.7122 -446.517
lclavicle -1.59028e-015 3.18055e-015
lhumerus -29.8725 -26.3374 55.6945
lradius 58.9599
lwrist -56.6166
lhand 4.00179 20.6464
lfingers 7.12502
lthumb 29.4174 48.3376
rfemur 0.306139 25.1288 24.3031
rtibia 1.45415
rfoot -11.4607 -24.8817
rtoes 2.34516
lfemur 9.2194 -41.3745 -16.145
ltibia -4.69102
lfoot -17.3165 47.9411
ltoes 5.41492
1385
root 0.471778 17.5103 7.97785 6.52163 -2.42524 -6.55118
lowerback 4.32191 1.41598 6.22345
upperback -8.22764 2.51729 -0.165598
thorax -11.0049 0.683 -4.0028
lowerneck -14.1028 -4.18329 -2.65909
upperneck 39.7226 -9.53456 8.98625
head 17.7367 -3.10173 2.80003
rclavicle 2.37548e-014 -1.35174e-014
rhumerus -28.8965 24.8276 -58.8301
rradius 48.9108
rwrist 59.0435
rhand 21.9658 -65.5834
rfingers 7.12502
rthumb 46.3618 -448.526
lclavicle 2.37548e-014 -1.35174e-014
lhumerus -29.8379 -25.2744 55.3906
lradius 58.7196
lwrist -58.8068
lhand -4.15834 19.6926
lfingers 7.12502
lthumb 21.6019 48.5077
rfemur 0.263541 25.127 24.3171
rtibia 1.48099
rfoot -11.4917 -24.8873
rtoes 2.64867
lfemur 9.16928 -41.3244 -16.0718
ltibia -4.69359
lfoot -17.3239 47.871
ltoes 5.37634
